<?xml version="1.0" encoding="UTF-8" standalone="no"?>
<!-- Created with Inkscape (http://www.inkscape.org/) -->

<svg
   xmlns:dc="http://purl.org/dc/elements/1.1/"
   xmlns:cc="http://creativecommons.org/ns#"
   xmlns:rdf="http://www.w3.org/1999/02/22-rdf-syntax-ns#"
   xmlns:svg="http://www.w3.org/2000/svg"
   xmlns="http://www.w3.org/2000/svg"
   xmlns:sodipodi="http://sodipodi.sourceforge.net/DTD/sodipodi-0.dtd"
   xmlns:inkscape="http://www.inkscape.org/namespaces/inkscape"
   width="243.07446mm"
   height="261.11203mm"
   viewBox="0 0 243.07446 261.11203"
   version="1.1"
   id="svg956"
   inkscape:version="0.92.3 (2405546, 2018-03-11)"
   sodipodi:docname="Graduation frame.svg">
  <title
     id="title973">Graduation frame</title>
  <defs
     id="defs950" />
  <sodipodi:namedview
     id="base"
     pagecolor="#ffffff"
     bordercolor="#666666"
     borderopacity="1.0"
     inkscape:pageopacity="0.0"
     inkscape:pageshadow="2"
     inkscape:zoom="0.35"
     inkscape:cx="1321.927"
     inkscape:cy="684.5881"
     inkscape:document-units="mm"
     inkscape:current-layer="layer1"
     showgrid="false"
     fit-margin-top="0"
     fit-margin-left="0"
     fit-margin-right="0"
     fit-margin-bottom="0"
     inkscape:window-width="1920"
     inkscape:window-height="1017"
     inkscape:window-x="3832"
     inkscape:window-y="-8"
     inkscape:window-maximized="1" />
  <metadata
     id="metadata953">
    <rdf:RDF>
      <cc:Work
         rdf:about="">
        <dc:format>image/svg+xml</dc:format>
        <dc:type
           rdf:resource="http://purl.org/dc/dcmitype/StillImage" />
        <dc:title>Graduation frame</dc:title>
        <cc:license
           rdf:resource="http://creativecommons.org/publicdomain/zero/1.0/" />
      </cc:Work>
      <cc:License
         rdf:about="http://creativecommons.org/publicdomain/zero/1.0/">
        <cc:permits
           rdf:resource="http://creativecommons.org/ns#Reproduction" />
        <cc:permits
           rdf:resource="http://creativecommons.org/ns#Distribution" />
        <cc:permits
           rdf:resource="http://creativecommons.org/ns#DerivativeWorks" />
      </cc:License>
    </rdf:RDF>
  </metadata>
  <g
     inkscape:label="Layer 1"
     inkscape:groupmode="layer"
     id="layer1"
     transform="translate(243.92651,-68.851898)">
    <path
       style="fill:#000000;stroke-width:1"
       d="m -23.435866,329.64428 c -0.966115,-0.16674 -2.13298,-0.37657 -2.593037,-0.46626 -0.460054,-0.0897 -1.928045,-0.32438 -3.2622,-0.52149 -1.334156,-0.1971 -3.44204,-0.54116 -4.684185,-0.76454 -2.074562,-0.37312 -4.516091,-0.76936 -11.292238,-1.83272 -1.380161,-0.21658 -3.149278,-0.50431 -3.931372,-0.6394 -1.333934,-0.23037 -2.53359,-0.43012 -7.695447,-1.28132 -1.150135,-0.18966 -3.935552,-0.63899 -6.189816,-0.99852 -2.254265,-0.35951 -4.512715,-0.73689 -5.018771,-0.83862 -0.506063,-0.10171 -2.199894,-0.37194 -3.764082,-0.60051 -1.564181,-0.22857 -3.408579,-0.52682 -4.098662,-0.66279 -0.690083,-0.13596 -2.910887,-0.50872 -4.935126,-0.82837 -2.024239,-0.31963 -4.546169,-0.7258 -5.604294,-0.90257 -1.058124,-0.17679 -2.977802,-0.48351 -4.265958,-0.68164 -1.288151,-0.19811 -2.632492,-0.43714 -2.98742,-0.53115 -0.474562,-0.12573 -1.160725,-0.10244 -2.59303,0.088 -1.880084,0.24994 -3.907046,0.44949 -10.312326,1.01522 -1.65619,0.14628 -3.38766,0.33796 -3.84772,0.42596 -0.46005,0.088 -1.77749,0.23797 -2.92762,0.33327 -4.16689,0.34525 -9.30862,0.84018 -10.37212,0.99841 -0.59808,0.089 -3.19529,0.35312 -5.77159,0.58696 -2.5763,0.23386 -6.75443,0.64567 -9.28473,0.91513 -2.5303,0.26945 -5.95561,0.61106 -7.6118,0.75915 -1.6562,0.14809 -3.65116,0.34293 -4.43325,0.433 -2.54067,0.29258 -4.38226,0.48405 -7.19357,0.74792 -3.11641,0.29251 -6.72502,0.6627 -8.93108,0.91621 -0.81762,0.094 -1.51421,0.14318 -1.548,0.10939 -0.0338,-0.0338 -0.17133,-2.31335 -0.30567,-5.06571 -0.13434,-2.75237 -0.29309,-5.84172 -0.35279,-6.86525 l -0.10853,-1.86096 -0.85954,-0.10327 c -0.47276,-0.0568 -1.80057,-0.11136 -2.95071,-0.12127 -1.15013,-0.01 -2.50185,-0.067 -3.00382,-0.12692 l -0.91267,-0.10892 0.0482,-3.28558 c 0.0295,-2.01187 -0.015,-3.32473 -0.11512,-3.38655 -0.0899,-0.0555 -1.68554,-0.34614 -3.54597,-0.64579 l -3.38259,-0.54483 0.094,-0.91201 c 0.10922,-1.05971 -0.27641,-3.51847 -1.16635,-7.43655 -0.73013,-3.21447 -0.71633,-4.15761 0.0841,-5.74316 0.59018,-1.16914 0.63982,-1.68617 0.26322,-2.74195 -0.23679,-0.66384 -0.48369,-1.75052 -1.62021,-7.13096 -0.19921,-0.94311 -0.4094,-1.71474 -0.46707,-1.71474 -0.0577,0 -0.18887,0.24466 -0.29155,0.54369 -0.84155,2.45077 -1.60424,4.51353 -1.90205,5.14424 -1.5575,3.29856 -1.85447,4.70509 -1.64976,7.81369 0.0775,1.17711 0.19101,3.77207 0.25222,5.76656 l 0.11127,3.62635 -0.58615,0.6396 c -0.57927,0.6321 -0.60087,0.63961 -1.83818,0.63961 -1.14547,0 -1.30549,-0.0433 -1.88037,-0.50856 -0.76862,-0.6221 -0.88876,-0.95858 -1.74954,-4.90013 -0.37514,-1.71776 -0.74845,-3.27379 -0.82958,-3.45781 -0.25472,-0.57777 -0.50442,-2.48625 -0.49426,-3.77777 0.009,-1.11303 0.30891,-3.95351 0.58194,-5.50695 0.0566,-0.32204 0.32619,-1.97823 0.59909,-3.68044 0.2729,-1.70219 0.56453,-3.35839 0.64806,-3.68043 0.0835,-0.32203 0.26845,-1.63946 0.41092,-2.92761 0.31982,-2.89173 0.76961,-6.14694 0.87278,-6.31635 0.20436,-0.33555 0.92805,-4.91073 0.99878,-6.31423 0.0704,-1.39791 0.017,-1.83101 -0.44363,-3.59678 -0.56842,-2.17889 -1.31413,-6.0424 -1.32736,-6.87713 l -0.008,-0.52001 -2.04933,-0.19926 c -3.25366,-0.31637 -4.91708,-0.63088 -7.06811,-1.33646 -1.75608,-0.57604 -4.28482,-1.55338 -5.85523,-2.26303 -0.27603,-0.12474 -0.99121,-0.38143 -1.58927,-0.57044 -3.55256,-1.12273 -3.51502,-1.1154 -5.68795,-1.10958 -2.04858,0.006 -2.12056,0.0185 -3.53596,0.63904 -0.79465,0.34838 -1.58511,0.76131 -1.75658,0.9176 -0.17146,0.1563 -1.06456,0.83598 -1.98467,1.51041 -1.58447,1.1614 -2.65216,2.10613 -3.89428,3.44578 -0.6545,0.70589 -1.15073,0.76429 -1.37958,0.16237 -0.25004,-0.65768 -0.19382,-5.31666 0.0884,-7.32734 0.34593,-2.4643 1.0922,-5.56289 2.34233,-9.72559 0.13817,-0.46006 0.4397,-2.00333 0.67008,-3.42949 0.23037,-1.42618 0.52661,-3.19529 0.6583,-3.93138 0.13169,-0.73608 0.28529,-1.71474 0.34135,-2.1748 0.3315,-2.72104 1.9426,-10.17094 2.42394,-11.20859 0.20542,-0.44282 1.36291,-4.54006 2.19763,-7.77909 1.09673,-4.25575 1.33327,-5.21635 1.56535,-6.35711 0.12167,-0.59808 0.34376,-1.54781 0.49355,-2.11052 0.33134,-1.24484 1.04091,-4.93869 2.02084,-10.52006 1.33833,-7.62265 1.72826,-9.44884 2.73259,-12.79787 0.3725,-1.24214 0.97903,-3.27474 1.34783,-4.51689 0.3688,-1.24215 0.74572,-2.38284 0.8376,-2.53488 0.25426,-0.42074 1.02108,-3.16445 1.02108,-3.65345 0,-0.30973 -0.15319,-0.52083 -0.54371,-0.74929 -0.56383,-0.32984 -2.46787,-1.75027 -3.05309,-2.27762 -0.18402,-0.16583 -1.23796,-1.06478 -2.34209,-1.99767 -2.7289,-2.30567 -3.51005,-3.00772 -5.31211,-4.77423 -1.89975,-1.86226 -2.40396,-2.42843 -5.13036,-5.76086 -0.56459,-0.69009 -1.16036,-1.40526 -1.32395,-1.58928 -0.16358,-0.18402 -0.51861,-0.63571 -0.78895,-1.00376 -0.27034,-0.36804 -0.53181,-0.70681 -0.58105,-0.75281 -0.21721,-0.20296 -2.50541,-3.50438 -2.50541,-3.61482 0,-0.0676 -0.12517,-0.26122 -0.27815,-0.43027 -0.28072,-0.31019 -1.25462,-2.09453 -1.90108,-3.48307 -0.19276,-0.41405 -0.5602,-1.16686 -0.81653,-1.67292 -0.9473,-1.87021 -1.85536,-4.13141 -2.11624,-5.26971 -0.58099,-2.53505 -0.58181,-8.03134 -0.001,-10.29635 0.36676,-1.43158 1.1009,-2.58034 3.24834,-5.08284 0.4003,-0.46649 0.80729,-1.01684 0.90441,-1.22299 0.18966,-0.40259 0.13405,-0.57598 -0.98201,-3.06211 -0.31166,-0.69416 -0.56662,-1.30974 -0.56662,-1.36794 0,-0.0582 -0.25284,-0.65711 -0.56186,-1.33091 -0.30903,-0.6738 -0.69445,-1.63914 -0.85651,-2.1452 -0.16205,-0.50605 -0.39522,-1.14595 -0.51815,-1.42198 -0.12292,-0.27603 -0.44296,-1.10413 -0.7112,-1.84022 -0.42008,-1.15276 -1.21544,-2.756441 -1.78553,-3.600138 -0.20832,-0.308299 -0.97454,-0.848659 -1.84535,-1.301396 -1.38719,-0.721202 -2.08602,-1.901679 -2.08602,-3.523733 0,-1.06192 0.52479,-3.018236 0.99347,-3.703426 0.15733,-0.230027 0.45761,-0.756999 0.66726,-1.171047 0.20965,-0.414049 0.79772,-1.148044 1.3068,-1.631101 1.38499,-1.31416 1.81489,-1.242969 3.28324,0.543701 0.22686,0.276032 0.44955,0.464236 0.49488,0.41823 0.0453,-0.046 0.17018,-0.836461 0.27744,-1.75657 0.27219,-2.334916 0.46313,-2.992678 1.06688,-3.67542 0.67317,-0.761218 1.43554,-0.935275 1.93015,-0.440669 0.46629,0.466294 0.44654,1.057695 -0.0959,2.869649 l -0.44787,1.496176 0.36407,1.213473 c 0.31571,1.052329 0.36964,1.679993 0.40604,4.72661 l 0.042,3.513139 0.83119,1.672924 c 0.45716,0.920108 0.87121,1.710564 0.92011,1.75657 0.0489,0.046 0.3524,0.648258 0.67444,1.338338 0.32204,0.69008 0.63023,1.29233 0.68488,1.33834 0.0546,0.046 0.32102,0.53534 0.59193,1.0874 0.27091,0.55207 0.74349,1.46976 1.05018,2.03932 l 0.5576,1.03557 0.47901,-0.35414 0.47901,-0.35415 0.88084,0.60821 c 0.80252,0.55412 1.46196,1.27565 2.50841,2.74459 0.31832,0.44684 1.93681,2.61725 3.15769,4.2345 0.17365,0.23002 0.46414,0.69268 0.64552,1.02812 0.18139,0.33544 0.42865,0.71185 0.54947,0.83646 0.12082,0.12462 0.44171,0.67826 0.71309,1.23033 1.29776,2.63995 2.88187,4.84962 3.84608,5.36485 0.18403,0.0983 0.60681,0.36181 0.93953,0.58552 0.33272,0.2237 1.0404,0.69536 1.57264,1.04811 0.53223,0.35276 1.38248,1.0496 1.88943,1.54852 0.50696,0.49893 0.95672,0.87218 0.99945,0.82944 0.0427,-0.0427 0.12788,-0.56235 0.18918,-1.15469 0.0613,-0.59234 0.2213,-1.20918 0.35553,-1.37075 0.20047,-0.24129 0.25918,-1.38737 0.32871,-6.41636 0.0465,-3.36742 0.0647,-6.19787 0.0402,-6.28988 -0.0281,-0.10579 -1.0785,-0.148 -2.85747,-0.11481 -2.38122,0.0444 -2.8461,0.0126 -3.02838,-0.20699 -0.53522,-0.64491 -0.003,-0.86539 4.84087,-2.00319 1.42617,-0.33504 2.68816,-0.60769 2.80442,-0.60589 0.11626,0.002 0.3421,-0.0687 0.50187,-0.15676 0.15978,-0.088 1.34444,-0.3146 2.63259,-0.50352 2.33725,-0.34279 3.67917,-0.56639 5.10242,-0.85024 0.41404,-0.0826 1.35507,-0.22571 2.09115,-0.31807 4.61073,-0.57855 6.80289,-0.89473 7.61181,-1.09785 1.21228,-0.3044 5.04734,-1.03417 6.10618,-1.16193 0.46005,-0.0555 1.19334,-0.18125 1.62952,-0.2794 0.75369,-0.16961 0.79106,-0.20459 0.75282,-0.70456 l -0.0403,-0.52609 1.17105,-0.18533 c 0.64407,-0.10193 2.22499,-0.27764 3.51314,-0.39047 1.28815,-0.11282 2.46741,-0.24007 2.62058,-0.28277 0.23116,-0.0644 0.299,-0.42134 0.39921,-2.100262 l 0.12072,-2.022631 3.47081,0.07693 3.47082,0.07693 0.11286,-1.68616 c 0.0621,-0.927389 0.18441,-2.326055 0.27188,-3.108147 0.3464,-3.097683 0.48429,-4.572566 0.74176,-7.934509 0.14749,-1.925694 0.30081,-3.554106 0.34073,-3.618692 0.0399,-0.06459 0.58182,-0.01588 1.20423,0.108243 1.03825,0.207048 2.61495,0.461777 7.15419,1.155823 0.92011,0.140683 1.79467,0.294384 1.94346,0.341556 0.36698,0.116343 4.17782,0.745419 4.51926,0.746018 0.50653,8.22e-4 0.72398,-1.364139 0.73278,-4.60006 l 0.008,-3.011263 0.70899,-2.063539 c 0.77901,-2.267327 1.04322,-2.853957 1.65126,-3.666225 0.6156,-0.822374 1.56101,-0.675461 1.56101,0.242574 0,0.211625 0.16939,0.539175 0.37641,0.727889 0.96759,0.882018 1.31746,1.289594 1.57233,1.831684 0.15141,0.322038 0.44657,0.791374 0.65592,1.042968 0.99587,1.196883 1.54611,4.656646 1.08882,6.846245 -0.18988,0.909239 -1.10382,2.469512 -1.87667,3.20388 -0.44757,0.425282 -0.2891,0.560815 0.81584,0.69779 0.53028,0.06574 1.79224,0.264178 2.80436,0.440981 1.01212,0.176804 3.46457,0.57935 5.44989,0.894547 1.98533,0.315196 4.39434,0.721198 5.35336,0.902226 0.95902,0.181028 2.83525,0.490893 4.16941,0.688587 1.33416,0.197696 2.80215,0.430596 3.2622,0.517555 1.13668,0.214855 3.17579,0.563041 6.27347,1.071221 3.38698,0.55564 6.21014,1.024119 9.20109,1.526834 1.33415,0.224246 3.85608,0.631133 5.60429,0.904194 1.748201,0.273059 3.517319,0.574892 3.931371,0.670737 0.414046,0.09584 1.844398,0.342098 3.178553,0.547232 l 2.42574,0.372969 4.60054,-0.455148 c 2.530295,-0.250334 6.143811,-0.609475 8.030034,-0.798094 1.886223,-0.188619 4.64815,-0.455318 6.137608,-0.592663 1.48947,-0.137345 2.806895,-0.283952 2.927617,-0.325792 0.120735,-0.04184 1.085237,-0.156519 2.143362,-0.254842 1.058124,-0.09832 3.128368,-0.289928 4.600545,-0.425786 1.472171,-0.135858 3.730615,-0.3561 5.018772,-0.489427 1.28815,-0.133327 3.433674,-0.355146 4.767829,-0.49293 1.334156,-0.137786 4.119572,-0.404736 6.189816,-0.593224 2.070244,-0.188488 4.253408,-0.417115 4.851481,-0.508062 0.598073,-0.09095 2.367184,-0.283152 3.931372,-0.427124 1.564181,-0.143972 4.424884,-0.407332 6.357112,-0.585242 1.932222,-0.177911 4.040106,-0.398064 4.684186,-0.489228 0.644072,-0.09117 2.902523,-0.320538 5.018772,-0.509715 2.116249,-0.189179 4.085624,-0.385996 4.376412,-0.437371 l 0.528693,-0.09341 0.09166,1.061379 c 0.05039,0.583759 0.17092,2.679934 0.267799,4.658166 0.17159,3.504508 0.477104,9.679348 0.538935,10.893008 l 0.03079,0.60452 1.499972,0.10647 c 0.824988,0.0586 2.184757,0.1073 3.021721,0.10831 0.836963,0.001 1.8040638,0.0485 2.1491023,0.10554 l 0.627348,0.10369 v 1.63774 1.63774 l 0.4600514,0.0913 c 0.2530346,0.0502 1.5516365,0.24818 2.8857982,0.43993 1.3341554,0.19175 2.6569169,0.42014 2.9394919,0.50752 0.2825561,0.0874 0.6401455,0.15889 0.7946383,0.15889 0.15448015,0 0.28039993,0.0941 0.27979926,0.20911 -0.003161,0.55923 -0.50455806,6.10696 -0.57859876,6.39893 -0.07896,0.31137 -0.1988287,1.73507 -0.8450251,10.03755 -0.1360806,1.7482 -0.3224406,3.70552 -0.4141537,4.3496 -0.091707,0.64407 -0.2791417,2.6014 -0.4165059,4.3496 -0.1373642,1.74821 -0.3246663,4.04429 -0.4162213,5.10242 -0.091542,1.05812 -0.2437779,2.90252 -0.3382984,4.09866 -0.094508,1.19614 -0.2440498,2.70177 -0.3323106,3.34585 -0.088267,0.64407 -0.2363865,2.11207 -0.3291682,3.2622 -0.092775,1.15013 -0.284396,3.5215 -0.4258257,5.26971 -0.1414108,1.74821 -0.367921,4.19486 -0.503363,5.437 -0.135442,1.24215 -0.3246979,3.23711 -0.4205715,4.43325 -0.095892,1.19614 -0.2857048,3.56751 -0.4218297,5.26971 -0.2577641,3.22328 -0.4384588,5.17627 -0.727521,7.86274 -0.094034,0.8741 -0.2541854,2.64322 -0.3558507,3.93137 -0.4524703,5.73268 -0.6757242,8.30471 -0.9126292,10.51353 -0.1396846,1.30239 -0.3655688,3.76069 -0.5019593,5.46289 -0.4505355,5.62297 -0.5915479,7.25763 -0.7864438,9.11743 -0.2413816,2.3033 -0.2466042,1.8039 0.078043,7.44452 0.150933,2.6223 0.3931049,7.17684 0.538164,10.12118 0.1450401,2.94435 0.3727453,7.2354 0.5059933,9.53567 0.5202134,8.98121 1.1580321,21.24048 1.3316831,25.59573 0.051342,1.28815 0.1649951,3.01963 0.2525225,3.84773 0.087527,0.8281 0.272705,3.91464 0.4115108,6.85898 0.6267915,13.2961 0.7666343,16.03396 0.9270326,18.15123 0.094103,1.24215 0.2446948,3.80172 0.3346501,5.68794 0.089968,1.88622 0.2005991,3.95647 0.2458518,4.60054 0.091644,1.30394 0.4415887,8.97749 0.4803162,10.53175 l 0.024786,0.9961 -2.1747988,0.20727 c -4.5058671,0.42944 -5.4736191,0.54173 -5.5792801,0.64727 -0.05975,0.0597 -0.134007,1.70207 -0.164989,3.64969 -0.03098,1.94762 -0.108538,3.5961 -0.172342,3.6633 -0.06382,0.0672 -1.619393,0.0568 -3.456829,-0.0231 -1.837423,-0.0799 -3.388251,-0.0973 -3.446282,-0.0385 -0.09449,0.0956 -0.35948,3.25544 -0.829692,9.8934 -0.08798,1.24215 -0.197305,2.42783 -0.242924,2.63486 -0.101109,0.45886 -0.415001,0.46204 -2.920536,0.0297 z m -1.037449,-9.23071 c 0.11237,-1.31116 0.203558,-2.6592 0.20266,-2.99566 l -0.0019,-0.61173 -1.547457,-0.0988 c -0.851097,-0.0544 -5.123328,-0.21454 -9.493841,-0.35597 -13.036191,-0.42183 -17.437586,-0.5762 -21.664362,-0.75987 -8.772477,-0.38118 -11.263494,-0.47422 -12.546928,-0.46867 l -1.338341,0.006 1.087399,0.23635 c 0.598074,0.12999 2.593031,0.4662 4.433249,0.74713 1.840219,0.28093 3.609336,0.5789 3.931372,0.66214 0.322036,0.0833 1.451261,0.275 2.509386,0.42613 1.969363,0.28128 5.114898,0.79022 6.608048,1.06915 0.460057,0.0859 1.890402,0.3161 3.178553,0.51146 1.288156,0.19537 3.132554,0.50094 4.098668,0.67906 0.966114,0.17811 2.245899,0.39566 2.843966,0.48342 3.82437,0.56124 5.750042,0.87063 6.794718,1.09164 0.654713,0.13852 2.536751,0.44255 4.182307,0.67564 1.645537,0.2331 3.104816,0.46763 3.242831,0.52118 0.257512,0.0999 2.556278,0.51766 3.017721,0.5484 0.211638,0.014 0.293747,-0.40678 0.461727,-2.36677 z m -136.727825,-2.30323 c 0.55207,-0.0861 1.94477,-0.23692 3.09491,-0.33527 5.83807,-0.49921 11.26543,-1.01551 11.37283,-1.08187 0.0558,-0.0345 1.86728,-0.21855 4.02546,-0.40899 4.62754,-0.40835 6.97375,-0.63827 8.69181,-0.85179 1.40067,-0.17407 3.43553,-0.37408 7.52815,-0.74 6.34468,-0.56727 7.19395,-0.64953 7.15077,-0.69271 -0.0249,-0.0249 -0.98532,-0.20112 -2.13423,-0.39156 -1.42915,-0.23691 -3.54197,-0.39997 -6.68946,-0.51625 -2.53029,-0.0935 -6.21909,-0.24712 -8.19732,-0.34141 -1.97823,-0.0943 -5.59175,-0.2411 -8.03004,-0.32624 -2.43829,-0.0851 -6.50349,-0.23075 -9.03378,-0.32356 -2.5303,-0.0928 -6.056,-0.21726 -7.83489,-0.27652 l -3.23434,-0.10773 0.10232,2.15285 c 0.0563,1.18406 0.14469,2.70321 0.19648,3.37586 l 0.0942,1.22301 0.94671,-0.10068 c 0.52069,-0.0554 1.3984,-0.17109 1.95046,-0.25714 z m 90.041642,-3.10938 c -0.05558,-0.0556 -0.199885,-0.0615 -0.320652,-0.0132 -0.13345,0.0534 -0.09382,0.0931 0.101078,0.10108 0.176344,0.007 0.275164,-0.0323 0.219574,-0.0879 z m 54.084582,-5.2941 c 0.0019,-0.57507 0.07525,-4.0192 0.162554,-7.65363 0.406238,-16.91351 0.508472,-21.67217 0.666696,-31.03273 0.0933,-5.52066 0.244713,-13.76399 0.336477,-18.31852 0.09174,-4.55453 0.243323,-12.87315 0.336825,-18.48581 0.0935,-5.61266 0.242627,-12.53856 0.331388,-15.39089 0.08875,-2.85234 0.240717,-9.70297 0.337697,-15.22361 0.09698,-5.52065 0.285471,-15.83423 0.418871,-22.91905 0.133393,-7.08484 0.288727,-16.19391 0.345171,-20.24238 0.05646,-4.04848 0.131143,-7.54569 0.165969,-7.77159 0.09441,-0.61214 0.223254,-6.25103 0.491406,-21.50458 0.132629,-7.54488 0.286603,-15.68272 0.342181,-18.08408 l 0.101046,-4.36611 -1.225434,-0.10766 c -2.235549,-0.19639 -8.846967,-0.4526 -24.479055,-0.9486 -5.587715,-0.1773 -10.999888,-0.38812 -17.126121,-0.66712 -1.989975,-0.0906 -7.194006,-0.27848 -11.56452,-0.41745 -13.721621,-0.43632 -18.100215,-0.59596 -29.77804,-1.08571 -4.329265,-0.18156 -16.175375,-0.58476 -24.508335,-0.83417 -2.94435,-0.0881 -6.5955,-0.23882 -8.11368,-0.33487 -1.51818,-0.096 -5.09406,-0.24977 -7.94639,-0.34159 -2.85233,-0.0918 -6.69703,-0.21566 -8.54377,-0.27518 l -3.35771,-0.10823 -0.3572,0.98752 c -0.19646,0.54314 -0.46499,1.368 -0.59673,1.83303 -0.13175,0.46502 -0.40644,1.23347 -0.61043,1.70766 l -0.37089,0.86216 0.77533,1.1363 c 0.71858,1.05314 1.62272,2.34305 2.20363,3.14382 1.30621,1.80061 3.19217,5.66264 3.83963,7.86274 0.83411,2.83432 0.91407,3.18081 1.06899,4.63232 0.26866,2.51703 0.0434,3.44805 -1.48969,6.15804 -1.38083,2.44079 -1.74539,3.11003 -2.46056,4.51689 -0.39757,0.78209 -0.72304,1.51609 -0.72326,1.6311 -1.7e-4,0.11502 -0.0757,0.20912 -0.1677,0.20912 -0.092,0 -0.16761,0.0941 -0.16801,0.20911 -3.3e-4,0.11502 -0.55613,1.3007 -1.23496,2.63486 -1.3119,2.57838 -4.50527,8.81959 -5.53593,10.81958 -0.84897,1.64741 -0.969,2.81756 -0.87217,8.50269 0.0832,4.88555 0.13012,5.28977 1.11643,9.6193 0.87755,3.85215 1.59973,8.18464 2.17509,13.04881 0.17958,1.51818 0.40123,3.36258 0.49256,4.09866 0.19809,1.59659 0.43447,4.53822 0.76628,9.53567 0.1344,2.02424 0.31712,4.16976 0.40604,4.76783 0.0889,0.59808 0.28115,2.40483 0.42717,4.01502 0.32586,3.59319 0.6724,6.48707 1.00167,8.36462 0.24607,1.40311 0.4359,2.86776 1.09499,8.44826 0.18474,1.56419 0.41279,3.40859 0.50677,4.09867 0.094,0.69008 0.32566,2.38391 0.51482,3.76407 0.37785,2.75698 1.59418,8.48397 2.22065,10.45578 0.21925,0.69008 0.56939,1.89459 0.77811,2.67667 0.20871,0.7821 0.43199,1.49727 0.49615,1.58928 0.0642,0.092 0.28636,0.80613 0.49376,1.58694 0.20739,0.7808 0.5874,1.87239 0.84445,2.42574 0.59083,1.27182 0.73841,1.9801 0.50391,2.41826 -0.17354,0.32426 -0.84171,0.49505 -0.84171,0.21515 0,-0.0711 -0.27567,-0.2777 -0.61259,-0.45914 -0.33693,-0.18145 -1.31018,-1.02072 -2.16279,-1.86505 -0.85663,-0.84832 -1.72398,-1.56159 -1.93862,-1.59426 -0.61034,-0.0929 -1.81687,0.15988 -2.73051,0.57199 -0.46006,0.20751 -0.87411,0.41572 -0.92011,0.46269 -0.6986,0.71327 -3.13712,1.63632 -5.35336,2.0264 -1.93687,0.34089 -4.43578,0.45162 -5.52065,0.2446 -1.46239,-0.27904 -2.9836,-0.642 -3.59678,-0.85816 -0.68313,-0.24082 -2.56515,-0.63717 -3.94927,-0.83169 l -0.77072,-0.10833 -0.11489,3.73767 c -0.0632,2.05572 -0.18418,7.76522 -0.26887,12.6878 -0.0847,4.92258 -0.24384,13.63255 -0.35366,19.35551 l -0.19969,10.40537 0.48226,0.63593 c 0.59026,0.77833 2.99068,3.19438 4.29443,4.3224 0.99799,0.86344 1.40333,1.6274 1.21588,2.29161 -0.28351,1.00459 -0.51393,1.34059 -1.1917,1.73779 -0.6297,0.36903 -1.01182,0.44301 -2.86285,0.55429 -1.93412,0.11627 -2.01353,0.13273 -0.83964,0.17417 0.71308,0.0252 1.35298,0.0597 1.42199,0.0767 0.069,0.017 2.0075,0.086 4.30777,0.1532 2.30027,0.0673 6.40312,0.22974 9.11744,0.3611 4.6109,0.22312 8.04882,0.34789 20.66061,0.74973 6.64666,0.21179 9.54561,0.32007 13.46704,0.50307 5.79036,0.27022 7.64872,0.3416 15.39089,0.59123 20.529957,0.66195 22.13248,0.71931 25.595733,0.91642 1.518182,0.0864 5.206978,0.23561 8.197331,0.33159 2.990346,0.096 7.620167,0.24994 10.288478,0.34218 2.668317,0.0922 7.147564,0.23879 9.953897,0.32568 2.806332,0.0869 6.382201,0.23606 7.946389,0.3315 1.564181,0.0954 6.495127,0.29163 10.957651,0.43597 9.596525,0.31041 15.49707,0.5122 16.018238,0.5478 0.352569,0.0241 0.376659,-0.0405 0.380257,-1.01988 z m 7.3740813,-6.74896 c 0.2954357,-0.0827 0.2937475,-0.53541 -0.017135,-4.58508 -0.1570156,-2.04548 -0.2436768,-3.65945 -0.7544693,-14.05256 -0.446438,-9.08354 -0.790623,-14.6305 -0.929094,-14.97267 -0.07852,-0.19409 -0.140626,0.71906 -0.147885,2.17481 -0.01537,3.08885 -0.288013,19.56811 -0.439629,26.57645 l -0.111699,5.16302 1.065952,-0.11446 c 0.586281,-0.063 1.1865544,-0.14823 1.3339593,-0.18951 z M -176.28947,277.06741 c 0.0521,-3.20696 0.0681,-5.80417 0.0356,-5.77158 -0.0741,0.0742 -0.50288,4.55861 -0.76903,8.04251 -0.19977,2.61498 -0.18374,2.849 0.31255,4.56367 0.2114,0.73038 0.32896,-1.17859 0.42088,-6.8346 z M -8.1558056,135.26273 c 0.2535658,-2.73114 0.3897412,-4.33193 0.8550153,-10.0518 0.131604,-1.61803 0.3185711,-3.57535 0.4154499,-4.3496 0.3346185,-2.67392 0.6984107,-7.73021 0.5642459,-7.84228 -0.1748524,-0.14605 -1.8914271,-0.56359 -1.9747055,-0.48032 -0.078859,0.0789 -0.3801684,14.83516 -0.4827884,23.64411 -0.083727,7.18804 -0.1373768,7.26729 0.6227828,-0.92011 z M -173.30568,121.30847 c 0.0638,-3.96452 0.1562,-8.73115 0.20537,-10.59251 l 0.0894,-3.38428 -1.03774,0.0944 c -0.57075,0.0519 -1.11302,0.11607 -1.20503,0.14256 -0.19092,0.055 -0.0458,4.91083 0.23512,7.86997 0.0961,1.01212 0.3052,4.59397 0.46466,7.95968 l 0.28994,6.11946 0.42117,-0.50052 0.42116,-0.50053 z m 5.1479,-1.52028 c 0.068,-0.092 0.26133,-0.5437 0.42956,-1.00375 0.16824,-0.46006 0.55662,-1.23161 0.86307,-1.71457 1.32911,-2.09458 1.73056,-3.13491 1.9987,-5.1796 0.28706,-2.18883 0.36513,-2.41101 1.54543,-4.39807 0.46456,-0.78209 1.04048,-1.83286 1.27981,-2.33503 0.23934,-0.50218 0.62419,-1.16089 0.85524,-1.46381 l 0.42009,-0.55076 -1.80691,-8.2e-4 c -0.9938,-3.4e-4 -2.64503,-0.0491 -3.6694,-0.10809 l -1.8625,-0.10733 -0.099,4.08128 c -0.14958,6.16817 -0.23921,14.01642 -0.15361,13.44966 0.0417,-0.27603 0.13147,-0.57716 0.19949,-0.66917 z m -11.61635,-2.13298 c -0.0364,-0.29903 -0.14749,-2.50102 -0.24689,-4.8933 -0.0994,-2.39228 -0.21924,-4.66385 -0.26627,-5.04793 l -0.0855,-0.69833 -0.95358,0.46202 c -0.52447,0.25412 -1.19824,0.55868 -1.49728,0.67681 -0.29904,0.11812 -0.5437,0.23898 -0.5437,0.26856 0,0.0296 0.1466,0.30276 0.32577,0.60705 0.63923,1.0856 1.51982,4.08042 1.62419,5.52373 0.1031,1.42583 0.36414,2.08309 1.18125,2.97421 0.21006,0.22909 0.38193,0.47376 0.38193,0.5437 0,0.0699 0.0329,0.12718 0.0731,0.12718 0.0402,0 0.0434,-0.24466 0.007,-0.5437 z m 159.514054,-16.06007 c -0.0019,-0.29903 -0.112819,-2.425735 -0.247338,-4.726005 -0.134519,-2.30027 -0.246206,-4.324448 -0.248179,-4.498172 -0.0032,-0.289731 -0.09703,-0.306229 -1.132823,-0.199395 -0.621069,0.06406 -3.048902,0.301204 -5.395179,0.52699 -2.346275,0.225786 -5.244617,0.514842 -6.440757,0.642349 -1.19614,0.127505 -3.605151,0.358081 -5.353359,0.512388 -1.748201,0.154307 -4.194851,0.388511 -5.436996,0.520455 -3.912486,0.415594 -6.844941,0.706527 -9.953898,0.987545 -1.656197,0.149703 -3.651155,0.346496 -4.433249,0.437321 -0.782093,0.09082 -2.250085,0.240901 -3.262204,0.333507 -2.193787,0.200728 -3.618213,0.436581 -2.843966,0.470896 0.27603,0.01223 1.329976,0.164683 2.342089,0.338774 1.012119,0.174091 3.044723,0.513141 4.516894,0.753445 1.472177,0.240302 3.354215,0.551031 4.182313,0.690505 0.828099,0.139477 2.634857,0.438952 4.015017,0.6655 1.380161,0.226547 3.412765,0.562271 4.516894,0.746053 1.10413,0.183783 3.4755,0.562934 5.269707,0.842554 1.794213,0.27962 3.751531,0.6137 4.349604,0.7424 0.68672,0.14778 3.337383,0.30747 7.19357,0.43338 3.358396,0.10965 6.13754,0.22723 6.175888,0.26129 0.03832,0.0341 0.546473,0.0619 1.129219,0.0619 h 1.059516 l -0.0025,-0.5437 z m -69.256283,-2.401406 c -1.242145,-0.217308 -4.16471,-0.697776 -6.494609,-1.067708 -2.329879,-0.369932 -4.550682,-0.745867 -4.935122,-0.835412 -0.38442,-0.08954 -2.27988,-0.393349 -4.2121,-0.675123 -1.93223,-0.281776 -3.77663,-0.585135 -4.09867,-0.674132 -0.32204,-0.089 -1.37598,-0.277959 -2.34209,-0.419917 -3.93163,-0.577706 -5.9714,-0.901343 -6.19973,-0.983674 -0.13257,-0.0478 -2.01015,-0.353754 -4.1724,-0.679896 -2.16226,-0.326141 -4.02017,-0.624547 -4.1287,-0.663127 -0.23353,-0.08301 -2.58163,-0.465994 -5.15602,-0.840965 -1.01212,-0.14742 -2.32956,-0.372632 -2.92762,-0.50047 -0.59808,-0.127839 -1.85904,-0.350181 -2.80215,-0.494097 -0.94311,-0.143916 -2.48638,-0.378854 -3.42949,-0.522086 -0.94312,-0.14323 -2.16644,-0.362132 -2.71851,-0.486447 -0.55206,-0.124317 -1.3174,-0.262604 -1.70073,-0.307307 l -0.69699,-0.08128 -0.44164,1.44601 c -0.53861,1.763439 -1.69315,5.358495 -1.84213,5.736055 -0.12353,0.313039 0.23459,0.337315 9.53298,0.646194 2.85233,0.09475 7.36922,0.244595 10.03754,0.332987 8.55728,0.283475 10.31453,0.349998 13.29974,0.503478 1.61019,0.08279 5.44955,0.237006 8.53191,0.342714 3.08236,0.105707 8.05095,0.286416 11.041296,0.401573 2.990353,0.115158 6.039256,0.211257 6.775345,0.213554 l 1.338334,0.0042 -2.258444,-0.395104 z m -66.053961,-2.366422 c 0.13512,-0.16102 0.49759,-0.857374 0.80549,-1.547455 0.30791,-0.690081 0.66072,-1.403186 0.78402,-1.584678 0.1233,-0.181491 0.22418,-0.428085 0.22418,-0.547985 0,-0.1199 0.34725,-0.950067 0.77167,-1.844816 1.12709,-2.376101 1.11498,-2.331705 0.66659,-2.444243 -0.20999,-0.0527 -1.16529,-0.211875 -2.1229,-0.353714 -0.9576,-0.141841 -2.62356,-0.390076 -3.70213,-0.551637 l -1.96103,-0.293746 -0.0821,0.673677 c -0.0933,0.765319 -0.59225,6.849763 -0.64521,7.86725 l -0.0348,0.66917 1.67293,0.09307 c 3.26242,0.181501 3.36088,0.177834 3.62331,-0.134892 z"
       id="path969"
       inkscape:connector-curvature="0"
       sodipodi:nodetypes="cccccccccsccccccsccsccscccccccccccccsccscccsccccccsccsccssscccccsscscccccccccsccsccccscsscscccscsccsccsccssssccsscsccccccsccscccccccccccsccscccccccccccccccsccccccccscccccccsccsccccscscccccscccssssssscsssccsssscsscscccccccccccccscsccccscccccscscccccccccsccccccccsccccccccccccccccccccssccccccccccccsscscccccccccccccccccccscsscccccsssssssssccccccccccscsccsccsccccsccccccsccscccccccccccssccccccccccccsccccccccccsccscccccsccccccccccccccccccccccscccccccccscccccccccscscsscccscsscssscsccccssssscsccccccscccscsccccccccssssscccccscscccscsccccc" />
  </g>
</svg>
